<mxfile host="app.diagrams.net" modified="2020-05-27T14:04:40.125Z" agent="5.0 (X11)" etag="bDuQg6HTK61Td4M7ajC3" version="13.1.3" type="github">
  <diagram id="mBjLz7T49912LiGAMW3A" name="Page-1">
    <mxGraphModel dx="1119" dy="515" grid="1" gridSize="10" guides="1" tooltips="1" connect="1" arrows="1" fold="1" page="1" pageScale="1" pageWidth="827" pageHeight="1169" math="0" shadow="0">
      <root>
        <mxCell id="0" />
        <mxCell id="1" parent="0" />
        <mxCell id="ghzMU9aXFlvLaxTiIsrm-9" value="Empresa" style="swimlane;fontStyle=0;childLayout=stackLayout;horizontal=1;startSize=26;horizontalStack=0;resizeParent=1;resizeParentMax=0;resizeLast=0;collapsible=1;marginBottom=0;align=center;fontSize=14;fillColor=#CCCC00;" parent="1" vertex="1">
          <mxGeometry x="30" y="40" width="160" height="156" as="geometry" />
        </mxCell>
        <mxCell id="ghzMU9aXFlvLaxTiIsrm-10" value="ID*" style="text;strokeColor=none;fillColor=none;spacingLeft=4;spacingRight=4;overflow=hidden;rotatable=0;points=[[0,0.5],[1,0.5]];portConstraint=eastwest;fontSize=12;" parent="ghzMU9aXFlvLaxTiIsrm-9" vertex="1">
          <mxGeometry y="26" width="160" height="26" as="geometry" />
        </mxCell>
        <mxCell id="ghzMU9aXFlvLaxTiIsrm-11" value="CNPJ*" style="text;strokeColor=none;fillColor=none;spacingLeft=4;spacingRight=4;overflow=hidden;rotatable=0;points=[[0,0.5],[1,0.5]];portConstraint=eastwest;fontSize=12;" parent="ghzMU9aXFlvLaxTiIsrm-9" vertex="1">
          <mxGeometry y="52" width="160" height="26" as="geometry" />
        </mxCell>
        <mxCell id="ghzMU9aXFlvLaxTiIsrm-12" value="RazaoSocial*" style="text;strokeColor=none;fillColor=none;spacingLeft=4;spacingRight=4;overflow=hidden;rotatable=0;points=[[0,0.5],[1,0.5]];portConstraint=eastwest;fontSize=12;" parent="ghzMU9aXFlvLaxTiIsrm-9" vertex="1">
          <mxGeometry y="78" width="160" height="26" as="geometry" />
        </mxCell>
        <mxCell id="ghzMU9aXFlvLaxTiIsrm-13" value="Email*" style="text;strokeColor=none;fillColor=none;spacingLeft=4;spacingRight=4;overflow=hidden;rotatable=0;points=[[0,0.5],[1,0.5]];portConstraint=eastwest;fontSize=12;" parent="ghzMU9aXFlvLaxTiIsrm-9" vertex="1">
          <mxGeometry y="104" width="160" height="26" as="geometry" />
        </mxCell>
        <mxCell id="TEn6VvvXS9nuJFrR01Om-1" value="Telefone" style="text;strokeColor=none;fillColor=none;spacingLeft=4;spacingRight=4;overflow=hidden;rotatable=0;points=[[0,0.5],[1,0.5]];portConstraint=eastwest;fontSize=12;" vertex="1" parent="ghzMU9aXFlvLaxTiIsrm-9">
          <mxGeometry y="130" width="160" height="26" as="geometry" />
        </mxCell>
        <mxCell id="ghzMU9aXFlvLaxTiIsrm-44" style="edgeStyle=orthogonalEdgeStyle;rounded=0;orthogonalLoop=1;jettySize=auto;html=1;exitX=0.25;exitY=0;exitDx=0;exitDy=0;entryX=0.75;entryY=0;entryDx=0;entryDy=0;" parent="1" source="ghzMU9aXFlvLaxTiIsrm-1" target="ghzMU9aXFlvLaxTiIsrm-9" edge="1">
          <mxGeometry relative="1" as="geometry" />
        </mxCell>
        <mxCell id="ghzMU9aXFlvLaxTiIsrm-45" style="edgeStyle=orthogonalEdgeStyle;rounded=0;orthogonalLoop=1;jettySize=auto;html=1;exitX=0.75;exitY=0;exitDx=0;exitDy=0;entryX=0.25;entryY=0;entryDx=0;entryDy=0;" parent="1" source="ghzMU9aXFlvLaxTiIsrm-1" target="ghzMU9aXFlvLaxTiIsrm-19" edge="1">
          <mxGeometry relative="1" as="geometry" />
        </mxCell>
        <mxCell id="ghzMU9aXFlvLaxTiIsrm-1" value="Funcionario" style="swimlane;fontStyle=0;childLayout=stackLayout;horizontal=1;startSize=26;horizontalStack=0;resizeParent=1;resizeParentMax=0;resizeLast=0;collapsible=1;marginBottom=0;align=center;fontSize=14;fillColor=#CCCC00;" parent="1" vertex="1">
          <mxGeometry x="224" y="40" width="160" height="208" as="geometry" />
        </mxCell>
        <mxCell id="ghzMU9aXFlvLaxTiIsrm-8" value="ID*" style="text;strokeColor=none;fillColor=none;spacingLeft=4;spacingRight=4;overflow=hidden;rotatable=0;points=[[0,0.5],[1,0.5]];portConstraint=eastwest;fontSize=12;" parent="ghzMU9aXFlvLaxTiIsrm-1" vertex="1">
          <mxGeometry y="26" width="160" height="26" as="geometry" />
        </mxCell>
        <mxCell id="ghzMU9aXFlvLaxTiIsrm-3" value="CPF" style="text;strokeColor=none;fillColor=none;spacingLeft=4;spacingRight=4;overflow=hidden;rotatable=0;points=[[0,0.5],[1,0.5]];portConstraint=eastwest;fontSize=12;" parent="ghzMU9aXFlvLaxTiIsrm-1" vertex="1">
          <mxGeometry y="52" width="160" height="26" as="geometry" />
        </mxCell>
        <mxCell id="ghzMU9aXFlvLaxTiIsrm-4" value="Nome*" style="text;strokeColor=none;fillColor=none;spacingLeft=4;spacingRight=4;overflow=hidden;rotatable=0;points=[[0,0.5],[1,0.5]];portConstraint=eastwest;fontSize=12;" parent="ghzMU9aXFlvLaxTiIsrm-1" vertex="1">
          <mxGeometry y="78" width="160" height="26" as="geometry" />
        </mxCell>
        <mxCell id="ghzMU9aXFlvLaxTiIsrm-5" value="Email*" style="text;strokeColor=none;fillColor=none;spacingLeft=4;spacingRight=4;overflow=hidden;rotatable=0;points=[[0,0.5],[1,0.5]];portConstraint=eastwest;fontSize=12;" parent="ghzMU9aXFlvLaxTiIsrm-1" vertex="1">
          <mxGeometry y="104" width="160" height="26" as="geometry" />
        </mxCell>
        <mxCell id="ghzMU9aXFlvLaxTiIsrm-7" value="ID_Empresa*" style="text;strokeColor=none;fillColor=none;spacingLeft=4;spacingRight=4;overflow=hidden;rotatable=0;points=[[0,0.5],[1,0.5]];portConstraint=eastwest;fontSize=12;" parent="ghzMU9aXFlvLaxTiIsrm-1" vertex="1">
          <mxGeometry y="130" width="160" height="26" as="geometry" />
        </mxCell>
        <mxCell id="ghzMU9aXFlvLaxTiIsrm-58" value="UserName*" style="text;strokeColor=none;fillColor=none;spacingLeft=4;spacingRight=4;overflow=hidden;rotatable=0;points=[[0,0.5],[1,0.5]];portConstraint=eastwest;fontSize=12;" parent="ghzMU9aXFlvLaxTiIsrm-1" vertex="1">
          <mxGeometry y="156" width="160" height="26" as="geometry" />
        </mxCell>
        <mxCell id="TEn6VvvXS9nuJFrR01Om-4" value="Senha" style="text;strokeColor=none;fillColor=none;spacingLeft=4;spacingRight=4;overflow=hidden;rotatable=0;points=[[0,0.5],[1,0.5]];portConstraint=eastwest;fontSize=12;" vertex="1" parent="ghzMU9aXFlvLaxTiIsrm-1">
          <mxGeometry y="182" width="160" height="26" as="geometry" />
        </mxCell>
        <mxCell id="ghzMU9aXFlvLaxTiIsrm-42" style="edgeStyle=orthogonalEdgeStyle;rounded=0;orthogonalLoop=1;jettySize=auto;html=1;exitX=0.156;exitY=0.019;exitDx=0;exitDy=0;entryX=0.5;entryY=0;entryDx=0;entryDy=0;exitPerimeter=0;" parent="1" source="ghzMU9aXFlvLaxTiIsrm-26" target="ghzMU9aXFlvLaxTiIsrm-9" edge="1">
          <mxGeometry relative="1" as="geometry">
            <Array as="points">
              <mxPoint x="35" y="260" />
              <mxPoint x="20" y="260" />
              <mxPoint x="20" y="200" />
              <mxPoint x="10" y="200" />
              <mxPoint x="10" y="20" />
              <mxPoint x="110" y="20" />
            </Array>
          </mxGeometry>
        </mxCell>
        <mxCell id="ghzMU9aXFlvLaxTiIsrm-57" style="edgeStyle=orthogonalEdgeStyle;rounded=0;orthogonalLoop=1;jettySize=auto;html=1;exitX=0.75;exitY=0;exitDx=0;exitDy=0;entryX=0.5;entryY=0;entryDx=0;entryDy=0;" parent="1" source="ghzMU9aXFlvLaxTiIsrm-19" target="ghzMU9aXFlvLaxTiIsrm-50" edge="1">
          <mxGeometry relative="1" as="geometry" />
        </mxCell>
        <mxCell id="TEn6VvvXS9nuJFrR01Om-32" style="edgeStyle=orthogonalEdgeStyle;rounded=0;orthogonalLoop=1;jettySize=auto;html=1;exitX=0.5;exitY=1;exitDx=0;exitDy=0;entryX=0.5;entryY=0;entryDx=0;entryDy=0;" edge="1" parent="1" source="ghzMU9aXFlvLaxTiIsrm-19" target="TEn6VvvXS9nuJFrR01Om-19">
          <mxGeometry relative="1" as="geometry" />
        </mxCell>
        <mxCell id="ghzMU9aXFlvLaxTiIsrm-19" value="Viagem" style="swimlane;fontStyle=0;childLayout=stackLayout;horizontal=1;startSize=26;horizontalStack=0;resizeParent=1;resizeParentMax=0;resizeLast=0;collapsible=1;marginBottom=0;align=center;fontSize=14;" parent="1" vertex="1">
          <mxGeometry x="435" y="41" width="160" height="208" as="geometry" />
        </mxCell>
        <mxCell id="ghzMU9aXFlvLaxTiIsrm-20" value="ID*" style="text;strokeColor=none;fillColor=none;spacingLeft=4;spacingRight=4;overflow=hidden;rotatable=0;points=[[0,0.5],[1,0.5]];portConstraint=eastwest;fontSize=12;" parent="ghzMU9aXFlvLaxTiIsrm-19" vertex="1">
          <mxGeometry y="26" width="160" height="26" as="geometry" />
        </mxCell>
        <mxCell id="ghzMU9aXFlvLaxTiIsrm-21" value="DataInicio*" style="text;strokeColor=none;fillColor=none;spacingLeft=4;spacingRight=4;overflow=hidden;rotatable=0;points=[[0,0.5],[1,0.5]];portConstraint=eastwest;fontSize=12;" parent="ghzMU9aXFlvLaxTiIsrm-19" vertex="1">
          <mxGeometry y="52" width="160" height="26" as="geometry" />
        </mxCell>
        <mxCell id="ghzMU9aXFlvLaxTiIsrm-22" value="DataFim" style="text;strokeColor=none;fillColor=none;spacingLeft=4;spacingRight=4;overflow=hidden;rotatable=0;points=[[0,0.5],[1,0.5]];portConstraint=eastwest;fontSize=12;" parent="ghzMU9aXFlvLaxTiIsrm-19" vertex="1">
          <mxGeometry y="78" width="160" height="26" as="geometry" />
        </mxCell>
        <mxCell id="ghzMU9aXFlvLaxTiIsrm-23" value="Origem*" style="text;strokeColor=none;fillColor=none;spacingLeft=4;spacingRight=4;overflow=hidden;rotatable=0;points=[[0,0.5],[1,0.5]];portConstraint=eastwest;fontSize=12;" parent="ghzMU9aXFlvLaxTiIsrm-19" vertex="1">
          <mxGeometry y="104" width="160" height="26" as="geometry" />
        </mxCell>
        <mxCell id="ghzMU9aXFlvLaxTiIsrm-24" value="Destino*" style="text;strokeColor=none;fillColor=none;spacingLeft=4;spacingRight=4;overflow=hidden;rotatable=0;points=[[0,0.5],[1,0.5]];portConstraint=eastwest;fontSize=12;" parent="ghzMU9aXFlvLaxTiIsrm-19" vertex="1">
          <mxGeometry y="130" width="160" height="26" as="geometry" />
        </mxCell>
        <mxCell id="ghzMU9aXFlvLaxTiIsrm-65" value="Status*" style="text;strokeColor=none;fillColor=none;spacingLeft=4;spacingRight=4;overflow=hidden;rotatable=0;points=[[0,0.5],[1,0.5]];portConstraint=eastwest;fontSize=12;" parent="ghzMU9aXFlvLaxTiIsrm-19" vertex="1">
          <mxGeometry y="156" width="160" height="26" as="geometry" />
        </mxCell>
        <mxCell id="TEn6VvvXS9nuJFrR01Om-27" value="ID_FuncxCusto*" style="text;strokeColor=none;fillColor=none;spacingLeft=4;spacingRight=4;overflow=hidden;rotatable=0;points=[[0,0.5],[1,0.5]];portConstraint=eastwest;fontSize=12;" vertex="1" parent="ghzMU9aXFlvLaxTiIsrm-19">
          <mxGeometry y="182" width="160" height="26" as="geometry" />
        </mxCell>
        <mxCell id="ghzMU9aXFlvLaxTiIsrm-50" value="Despesa" style="swimlane;fontStyle=0;childLayout=stackLayout;horizontal=1;startSize=26;horizontalStack=0;resizeParent=1;resizeParentMax=0;resizeLast=0;collapsible=1;marginBottom=0;align=center;fontSize=14;fillColor=#CCCC00;" parent="1" vertex="1">
          <mxGeometry x="640" y="40" width="160" height="234" as="geometry" />
        </mxCell>
        <mxCell id="ghzMU9aXFlvLaxTiIsrm-51" value="ID*" style="text;strokeColor=none;fillColor=none;spacingLeft=4;spacingRight=4;overflow=hidden;rotatable=0;points=[[0,0.5],[1,0.5]];portConstraint=eastwest;fontSize=12;" parent="ghzMU9aXFlvLaxTiIsrm-50" vertex="1">
          <mxGeometry y="26" width="160" height="26" as="geometry" />
        </mxCell>
        <mxCell id="ghzMU9aXFlvLaxTiIsrm-52" value="NumNotaFiscal" style="text;strokeColor=none;fillColor=none;spacingLeft=4;spacingRight=4;overflow=hidden;rotatable=0;points=[[0,0.5],[1,0.5]];portConstraint=eastwest;fontSize=12;" parent="ghzMU9aXFlvLaxTiIsrm-50" vertex="1">
          <mxGeometry y="52" width="160" height="26" as="geometry" />
        </mxCell>
        <mxCell id="ghzMU9aXFlvLaxTiIsrm-53" value="Valor*" style="text;strokeColor=none;fillColor=none;spacingLeft=4;spacingRight=4;overflow=hidden;rotatable=0;points=[[0,0.5],[1,0.5]];portConstraint=eastwest;fontSize=12;" parent="ghzMU9aXFlvLaxTiIsrm-50" vertex="1">
          <mxGeometry y="78" width="160" height="26" as="geometry" />
        </mxCell>
        <mxCell id="ghzMU9aXFlvLaxTiIsrm-54" value="Data*" style="text;strokeColor=none;fillColor=none;spacingLeft=4;spacingRight=4;overflow=hidden;rotatable=0;points=[[0,0.5],[1,0.5]];portConstraint=eastwest;fontSize=12;" parent="ghzMU9aXFlvLaxTiIsrm-50" vertex="1">
          <mxGeometry y="104" width="160" height="26" as="geometry" />
        </mxCell>
        <mxCell id="ghzMU9aXFlvLaxTiIsrm-55" value="TipoDeGasto*" style="text;strokeColor=none;fillColor=none;spacingLeft=4;spacingRight=4;overflow=hidden;rotatable=0;points=[[0,0.5],[1,0.5]];portConstraint=eastwest;fontSize=12;" parent="ghzMU9aXFlvLaxTiIsrm-50" vertex="1">
          <mxGeometry y="130" width="160" height="26" as="geometry" />
        </mxCell>
        <mxCell id="ghzMU9aXFlvLaxTiIsrm-59" value="PathImagem*" style="text;strokeColor=none;fillColor=none;spacingLeft=4;spacingRight=4;overflow=hidden;rotatable=0;points=[[0,0.5],[1,0.5]];portConstraint=eastwest;fontSize=12;" parent="ghzMU9aXFlvLaxTiIsrm-50" vertex="1">
          <mxGeometry y="156" width="160" height="26" as="geometry" />
        </mxCell>
        <mxCell id="ghzMU9aXFlvLaxTiIsrm-64" value="Observacao" style="text;strokeColor=none;fillColor=none;spacingLeft=4;spacingRight=4;overflow=hidden;rotatable=0;points=[[0,0.5],[1,0.5]];portConstraint=eastwest;fontSize=12;" parent="ghzMU9aXFlvLaxTiIsrm-50" vertex="1">
          <mxGeometry y="182" width="160" height="26" as="geometry" />
        </mxCell>
        <mxCell id="ghzMU9aXFlvLaxTiIsrm-56" value="ID_Viagem*" style="text;strokeColor=none;fillColor=none;spacingLeft=4;spacingRight=4;overflow=hidden;rotatable=0;points=[[0,0.5],[1,0.5]];portConstraint=eastwest;fontSize=12;" parent="ghzMU9aXFlvLaxTiIsrm-50" vertex="1">
          <mxGeometry y="208" width="160" height="26" as="geometry" />
        </mxCell>
        <mxCell id="ghzMU9aXFlvLaxTiIsrm-60" value="TipoDespesa" style="swimlane;fontStyle=0;childLayout=stackLayout;horizontal=1;startSize=26;horizontalStack=0;resizeParent=1;resizeParentMax=0;resizeLast=0;collapsible=1;marginBottom=0;align=center;fontSize=14;fillColor=#CCCC00;" parent="1" vertex="1">
          <mxGeometry x="640" y="300" width="160" height="104" as="geometry" />
        </mxCell>
        <mxCell id="ghzMU9aXFlvLaxTiIsrm-61" value="ID" style="text;strokeColor=none;fillColor=none;spacingLeft=4;spacingRight=4;overflow=hidden;rotatable=0;points=[[0,0.5],[1,0.5]];portConstraint=eastwest;fontSize=12;" parent="ghzMU9aXFlvLaxTiIsrm-60" vertex="1">
          <mxGeometry y="26" width="160" height="26" as="geometry" />
        </mxCell>
        <mxCell id="ghzMU9aXFlvLaxTiIsrm-62" value="NomeDespesa" style="text;strokeColor=none;fillColor=none;spacingLeft=4;spacingRight=4;overflow=hidden;rotatable=0;points=[[0,0.5],[1,0.5]];portConstraint=eastwest;fontSize=12;" parent="ghzMU9aXFlvLaxTiIsrm-60" vertex="1">
          <mxGeometry y="52" width="160" height="26" as="geometry" />
        </mxCell>
        <mxCell id="ghzMU9aXFlvLaxTiIsrm-63" value="Setor" style="text;strokeColor=none;fillColor=none;spacingLeft=4;spacingRight=4;overflow=hidden;rotatable=0;points=[[0,0.5],[1,0.5]];portConstraint=eastwest;fontSize=12;" parent="ghzMU9aXFlvLaxTiIsrm-60" vertex="1">
          <mxGeometry y="78" width="160" height="26" as="geometry" />
        </mxCell>
        <mxCell id="TEn6VvvXS9nuJFrR01Om-14" style="edgeStyle=orthogonalEdgeStyle;rounded=0;orthogonalLoop=1;jettySize=auto;html=1;exitX=0.5;exitY=0;exitDx=0;exitDy=0;" edge="1" parent="1" source="TEn6VvvXS9nuJFrR01Om-5" target="TEn6VvvXS9nuJFrR01Om-13">
          <mxGeometry relative="1" as="geometry" />
        </mxCell>
        <mxCell id="TEn6VvvXS9nuJFrR01Om-25" style="edgeStyle=orthogonalEdgeStyle;rounded=0;orthogonalLoop=1;jettySize=auto;html=1;exitX=0.75;exitY=0;exitDx=0;exitDy=0;" edge="1" parent="1" source="TEn6VvvXS9nuJFrR01Om-5" target="TEn6VvvXS9nuJFrR01Om-21">
          <mxGeometry relative="1" as="geometry" />
        </mxCell>
        <mxCell id="TEn6VvvXS9nuJFrR01Om-26" style="edgeStyle=orthogonalEdgeStyle;rounded=0;orthogonalLoop=1;jettySize=auto;html=1;exitX=1;exitY=0.5;exitDx=0;exitDy=0;entryX=-0.011;entryY=0.431;entryDx=0;entryDy=0;entryPerimeter=0;" edge="1" parent="1" source="TEn6VvvXS9nuJFrR01Om-4" target="TEn6VvvXS9nuJFrR01Om-24">
          <mxGeometry relative="1" as="geometry">
            <Array as="points">
              <mxPoint x="410" y="235" />
              <mxPoint x="410" y="355" />
            </Array>
          </mxGeometry>
        </mxCell>
        <mxCell id="TEn6VvvXS9nuJFrR01Om-19" value="FuncxCusto" style="swimlane;fontStyle=0;childLayout=stackLayout;horizontal=1;startSize=26;horizontalStack=0;resizeParent=1;resizeParentMax=0;resizeLast=0;collapsible=1;marginBottom=0;align=center;fontSize=14;" vertex="1" parent="1">
          <mxGeometry x="435" y="300" width="160" height="106" as="geometry" />
        </mxCell>
        <mxCell id="TEn6VvvXS9nuJFrR01Om-20" value="ID" style="text;html=1;align=center;verticalAlign=middle;resizable=0;points=[];autosize=1;" vertex="1" parent="TEn6VvvXS9nuJFrR01Om-19">
          <mxGeometry y="26" width="160" height="20" as="geometry" />
        </mxCell>
        <mxCell id="TEn6VvvXS9nuJFrR01Om-24" value="ID_Funcionario" style="text;html=1;align=center;verticalAlign=middle;resizable=0;points=[];autosize=1;" vertex="1" parent="TEn6VvvXS9nuJFrR01Om-19">
          <mxGeometry y="46" width="160" height="20" as="geometry" />
        </mxCell>
        <mxCell id="TEn6VvvXS9nuJFrR01Om-21" value="ID_Contrato" style="text;html=1;align=center;verticalAlign=middle;resizable=0;points=[];autosize=1;" vertex="1" parent="TEn6VvvXS9nuJFrR01Om-19">
          <mxGeometry y="66" width="160" height="20" as="geometry" />
        </mxCell>
        <mxCell id="TEn6VvvXS9nuJFrR01Om-22" value="Status" style="text;html=1;align=center;verticalAlign=middle;resizable=0;points=[];autosize=1;" vertex="1" parent="TEn6VvvXS9nuJFrR01Om-19">
          <mxGeometry y="86" width="160" height="20" as="geometry" />
        </mxCell>
        <mxCell id="ghzMU9aXFlvLaxTiIsrm-26" value="CentroDeCusto" style="swimlane;fontStyle=0;childLayout=stackLayout;horizontal=1;startSize=26;horizontalStack=0;resizeParent=1;resizeParentMax=0;resizeLast=0;collapsible=1;marginBottom=0;align=center;fontSize=14;" parent="1" vertex="1">
          <mxGeometry x="10" y="288" width="160" height="130" as="geometry" />
        </mxCell>
        <mxCell id="ghzMU9aXFlvLaxTiIsrm-27" value="ID" style="text;strokeColor=none;fillColor=none;spacingLeft=4;spacingRight=4;overflow=hidden;rotatable=0;points=[[0,0.5],[1,0.5]];portConstraint=eastwest;fontSize=12;" parent="ghzMU9aXFlvLaxTiIsrm-26" vertex="1">
          <mxGeometry y="26" width="160" height="26" as="geometry" />
        </mxCell>
        <mxCell id="ghzMU9aXFlvLaxTiIsrm-29" value="NomeCentroDeCusto" style="text;strokeColor=none;fillColor=none;spacingLeft=4;spacingRight=4;overflow=hidden;rotatable=0;points=[[0,0.5],[1,0.5]];portConstraint=eastwest;fontSize=12;" parent="ghzMU9aXFlvLaxTiIsrm-26" vertex="1">
          <mxGeometry y="52" width="160" height="26" as="geometry" />
        </mxCell>
        <mxCell id="ghzMU9aXFlvLaxTiIsrm-28" value="ID_Empresa" style="text;strokeColor=none;fillColor=none;spacingLeft=4;spacingRight=4;overflow=hidden;rotatable=0;points=[[0,0.5],[1,0.5]];portConstraint=eastwest;fontSize=12;" parent="ghzMU9aXFlvLaxTiIsrm-26" vertex="1">
          <mxGeometry y="78" width="160" height="26" as="geometry" />
        </mxCell>
        <mxCell id="TEn6VvvXS9nuJFrR01Om-13" value="ID_Contrato" style="text;strokeColor=none;fillColor=none;spacingLeft=4;spacingRight=4;overflow=hidden;rotatable=0;points=[[0,0.5],[1,0.5]];portConstraint=eastwest;fontSize=12;" vertex="1" parent="ghzMU9aXFlvLaxTiIsrm-26">
          <mxGeometry y="104" width="160" height="26" as="geometry" />
        </mxCell>
        <mxCell id="TEn6VvvXS9nuJFrR01Om-5" value="Contrato" style="swimlane;fontStyle=0;childLayout=stackLayout;horizontal=1;startSize=26;horizontalStack=0;resizeParent=1;resizeParentMax=0;resizeLast=0;collapsible=1;marginBottom=0;align=center;fontSize=14;" vertex="1" parent="1">
          <mxGeometry x="200" y="380" width="160" height="86" as="geometry" />
        </mxCell>
        <mxCell id="TEn6VvvXS9nuJFrR01Om-10" value="ID" style="text;html=1;align=center;verticalAlign=middle;resizable=0;points=[];autosize=1;" vertex="1" parent="TEn6VvvXS9nuJFrR01Om-5">
          <mxGeometry y="26" width="160" height="20" as="geometry" />
        </mxCell>
        <mxCell id="TEn6VvvXS9nuJFrR01Om-11" value="Contrato" style="text;html=1;align=center;verticalAlign=middle;resizable=0;points=[];autosize=1;" vertex="1" parent="TEn6VvvXS9nuJFrR01Om-5">
          <mxGeometry y="46" width="160" height="20" as="geometry" />
        </mxCell>
        <mxCell id="TEn6VvvXS9nuJFrR01Om-17" value="Status" style="text;html=1;align=center;verticalAlign=middle;resizable=0;points=[];autosize=1;" vertex="1" parent="TEn6VvvXS9nuJFrR01Om-5">
          <mxGeometry y="66" width="160" height="20" as="geometry" />
        </mxCell>
      </root>
    </mxGraphModel>
  </diagram>
</mxfile>
